<svg id="svg" xmlns="http://www.w3.org/2000/svg" xmlns:xlink="http://www.w3.org/1999/xlink" width="400" height="70.17543859649122" viewBox="0, 0, 400,70.17543859649122"><g id="svgg"><path id="path0" d="M209.852 16.845 C 207.801 17.207,205.923 18.854,205.328 20.813 C 204.767 22.660,204.893 37.278,205.482 38.741 C 206.837 42.103,211.570 43.324,214.217 40.994 L 214.988 40.316 215.244 40.928 C 215.385 41.265,215.500 41.607,215.500 41.687 C 215.500 41.767,216.063 41.833,216.750 41.833 L 218.000 41.833 218.000 35.500 L 218.000 29.167 214.417 29.167 L 210.833 29.167 210.833 31.000 L 210.833 32.833 212.167 32.833 L 213.500 32.833 213.500 34.343 C 213.500 37.208,212.877 38.277,211.298 38.126 C 209.538 37.957,209.502 37.783,209.501 29.519 C 209.500 22.455,209.556 21.818,210.241 21.175 C 211.629 19.872,213.237 21.279,213.445 23.979 L 213.549 25.333 215.691 25.333 L 217.833 25.333 217.833 24.023 C 217.833 18.904,214.611 16.006,209.852 16.845 M221.333 29.417 L 221.333 41.833 223.625 41.833 L 225.917 41.834 225.868 36.833 L 225.819 31.833 226.785 31.834 L 227.750 31.834 228.781 35.292 C 229.349 37.194,229.993 39.425,230.213 40.250 L 230.614 41.750 232.987 41.796 C 234.848 41.833,235.348 41.797,235.304 41.630 C 235.274 41.513,234.821 40.104,234.298 38.500 C 231.910 31.176,231.799 30.770,232.122 30.541 C 234.253 29.033,235.133 25.800,234.423 22.091 C 233.648 18.037,231.593 17.005,224.292 17.001 L 221.333 17.000 221.333 29.417 M240.106 21.958 C 239.077 27.294,237.571 35.460,236.994 38.833 C 236.798 39.979,236.597 41.123,236.548 41.375 L 236.458 41.833 238.615 41.833 L 240.772 41.833 241.060 39.708 C 241.218 38.540,241.390 37.340,241.442 37.042 L 241.537 36.500 243.682 36.500 C 246.172 36.500,245.844 36.159,246.250 39.167 C 246.392 40.221,246.546 41.252,246.591 41.458 C 246.695 41.933,251.000 42.063,251.000 41.592 C 251.000 41.459,250.370 38.028,249.601 33.967 C 248.831 29.906,248.117 25.976,248.013 25.234 C 247.909 24.492,247.526 22.369,247.162 20.518 C 246.798 18.666,246.500 17.117,246.500 17.075 C 246.500 17.034,245.276 17.000,243.781 17.000 L 241.062 17.000 240.106 21.958 M253.500 29.395 L 253.500 41.833 257.292 41.831 C 263.314 41.827,264.949 41.132,266.194 38.047 C 266.732 36.715,266.808 22.775,266.286 21.167 C 265.258 17.996,263.514 17.174,257.542 17.044 L 253.500 16.956 253.500 29.395 M270.037 27.292 C 270.081 37.072,270.100 37.633,270.417 38.578 C 271.817 42.755,279.144 43.532,281.907 39.797 C 282.988 38.335,283.000 38.195,283.000 27.068 L 283.000 17.000 280.750 17.000 L 278.500 17.000 278.500 26.792 C 278.499 37.535,278.508 37.436,277.500 37.963 C 276.777 38.341,275.552 38.128,274.943 37.520 L 274.417 36.994 274.370 26.997 L 274.323 17.000 272.157 17.000 L 269.990 17.000 270.037 27.292 M289.591 17.155 C 289.538 17.240,289.381 18.121,289.242 19.113 C 289.103 20.105,288.612 22.867,288.152 25.250 C 286.422 34.206,285.663 38.298,285.507 39.506 C 285.419 40.190,285.297 40.994,285.236 41.292 L 285.125 41.833 287.279 41.833 L 289.433 41.833 289.728 39.708 C 289.891 38.540,290.064 37.337,290.114 37.037 L 290.206 36.491 292.386 36.537 L 294.567 36.583 294.936 39.167 C 295.139 40.587,295.312 41.769,295.320 41.792 C 295.383 41.983,299.667 41.801,299.667 41.607 C 299.667 41.390,299.058 38.147,297.404 29.542 C 296.985 27.365,296.568 25.096,296.478 24.500 C 296.278 23.185,295.344 17.898,295.220 17.375 C 295.124 16.974,289.830 16.767,289.591 17.155 M299.333 19.000 L 299.333 21.000 301.417 21.000 L 303.500 21.000 303.500 31.417 L 303.500 41.833 305.667 41.833 L 307.833 41.833 307.833 31.417 L 307.833 21.000 309.917 21.000 L 312.000 21.000 312.000 19.000 L 312.000 17.000 305.667 17.000 L 299.333 17.000 299.333 19.000 M314.500 29.417 L 314.500 41.833 320.500 41.833 L 326.500 41.833 326.500 39.833 L 326.500 37.833 322.750 37.833 L 319.000 37.833 319.000 34.417 L 319.000 31.000 321.750 31.000 L 324.500 31.000 324.500 29.000 L 324.500 27.000 321.750 27.000 L 319.000 27.000 319.000 24.000 L 319.000 21.000 322.500 21.000 L 326.000 21.000 326.000 19.000 L 326.000 17.000 320.250 17.000 L 314.500 17.000 314.500 29.417 M228.964 21.264 C 229.962 21.913,230.354 23.567,230.008 25.667 C 229.701 27.530,229.096 28.000,227.005 28.000 L 225.833 28.000 225.833 24.393 L 225.833 20.786 227.172 20.877 C 228.040 20.937,228.671 21.073,228.964 21.264 M260.934 21.215 C 262.099 21.820,262.078 21.679,262.134 29.083 C 262.199 37.793,262.180 37.856,259.382 37.975 L 258.000 38.034 258.000 29.412 L 258.000 20.789 259.208 20.868 C 259.873 20.911,260.649 21.067,260.934 21.215 M292.826 25.641 C 292.830 25.947,293.058 27.583,293.333 29.277 C 293.608 30.971,293.833 32.389,293.833 32.428 C 293.833 32.468,293.172 32.500,292.363 32.500 L 290.893 32.500 291.185 30.708 C 291.346 29.723,291.689 27.575,291.947 25.936 L 292.417 22.955 292.617 24.019 C 292.728 24.604,292.821 25.334,292.826 25.641 M244.228 25.921 C 244.815 29.700,245.174 32.381,245.103 32.453 C 245.069 32.486,244.411 32.492,243.640 32.465 L 242.237 32.417 242.985 27.797 C 243.396 25.256,243.751 23.195,243.773 23.217 C 243.795 23.240,244.000 24.456,244.228 25.921 M174.083 44.837 C 171.075 45.095,168.970 47.007,168.499 49.911 C 168.281 51.255,168.288 63.789,168.508 65.144 C 169.052 68.498,171.209 70.167,175.000 70.167 C 178.138 70.167,179.848 69.253,180.990 66.967 L 181.500 65.947 181.500 57.719 C 181.500 48.392,181.505 48.432,180.163 46.829 C 179.200 45.679,177.871 45.058,175.750 44.769 C 175.567 44.744,174.817 44.775,174.083 44.837 M224.153 44.850 C 221.792 45.105,219.900 46.650,219.145 48.942 C 218.789 50.020,218.672 64.181,219.006 65.632 C 219.742 68.820,221.585 70.083,225.500 70.083 C 228.925 70.083,230.314 69.335,231.472 66.866 L 231.917 65.917 231.917 57.500 L 231.917 49.083 231.442 48.167 C 230.104 45.583,227.660 44.471,224.153 44.850 M123.917 45.134 C 119.541 46.654,118.623 51.905,121.967 56.286 C 122.906 57.516,123.386 57.971,125.184 59.333 C 128.524 61.863,129.490 64.968,127.291 66.105 C 125.894 66.828,124.018 65.343,123.999 63.500 C 123.991 62.696,123.814 62.607,122.631 62.813 C 122.040 62.916,121.220 63.000,120.810 63.000 C 119.604 63.000,119.435 63.223,119.666 64.508 C 120.358 68.354,122.644 70.251,126.446 70.136 C 134.248 69.898,135.210 60.618,127.929 55.842 C 126.280 54.760,124.487 52.420,124.383 51.214 C 124.135 48.323,127.451 47.882,128.190 50.708 C 128.429 51.624,128.307 51.596,130.842 51.308 C 132.771 51.089,132.807 51.055,132.515 49.752 C 131.637 45.829,127.819 43.778,123.917 45.134 M139.335 45.266 C 138.103 45.739,137.524 46.222,136.741 47.430 C 135.663 49.094,135.646 49.269,135.701 57.948 L 135.750 65.758 136.282 66.837 C 137.550 69.407,138.776 70.083,142.167 70.083 C 146.906 70.083,148.500 68.328,148.500 63.107 L 148.500 60.833 146.347 60.833 L 144.193 60.833 144.138 62.988 C 144.064 65.893,143.417 66.705,141.550 66.238 C 140.267 65.917,140.257 65.855,140.200 58.110 C 140.137 49.628,140.236 49.021,141.722 48.782 C 143.228 48.540,144.167 49.852,144.167 52.202 L 144.167 53.667 146.333 53.667 L 148.500 53.667 148.500 51.899 C 148.500 48.182,147.365 46.177,144.686 45.159 C 143.373 44.660,140.776 44.712,139.335 45.266 M188.725 45.177 C 186.731 45.809,185.415 47.464,184.997 49.865 C 184.596 52.167,184.854 65.239,185.327 66.583 C 186.238 69.172,187.824 70.083,191.417 70.083 C 194.904 70.083,196.160 69.400,197.395 66.833 L 197.917 65.750 197.917 57.583 C 197.917 48.633,197.959 49.050,196.869 47.333 C 195.423 45.058,191.978 44.146,188.725 45.177 M152.000 57.583 L 152.000 70.000 154.250 70.000 L 156.500 70.000 156.500 64.583 L 156.500 59.167 158.583 59.167 L 160.667 59.167 160.667 64.583 L 160.667 70.000 162.917 70.000 L 165.167 70.000 165.167 57.583 L 165.167 45.167 162.917 45.167 L 160.667 45.167 160.667 50.167 L 160.667 55.167 158.583 55.167 L 156.500 55.167 156.500 50.167 L 156.500 45.167 154.250 45.167 L 152.000 45.167 152.000 57.583 M201.167 57.583 L 201.167 70.000 206.750 70.000 L 212.333 70.000 212.333 68.000 L 212.333 66.000 209.000 66.000 L 205.667 66.000 205.667 55.583 L 205.667 45.167 203.417 45.167 L 201.167 45.167 201.167 57.583 M235.333 57.583 L 235.333 70.000 237.583 70.000 L 239.833 70.000 239.833 64.587 L 239.833 59.175 242.625 59.129 L 245.417 59.083 245.464 57.125 L 245.511 55.167 242.672 55.167 L 239.833 55.167 239.833 52.167 L 239.833 49.167 243.583 49.167 L 247.333 49.167 247.333 47.167 L 247.333 45.167 241.333 45.167 L 235.333 45.167 235.333 57.583 M176.204 49.020 C 177.044 49.469,177.080 49.778,177.135 57.000 C 177.203 65.871,177.154 66.105,175.201 66.292 C 173.027 66.501,172.980 66.304,173.037 57.254 L 173.083 49.855 173.565 49.353 C 174.218 48.670,175.297 48.534,176.204 49.020 M192.785 49.210 C 193.452 49.818,193.529 50.812,193.471 58.083 C 193.406 66.273,193.391 66.333,191.398 66.333 C 189.383 66.333,189.333 66.120,189.333 57.447 L 189.333 50.216 189.714 49.650 C 190.372 48.671,191.946 48.446,192.785 49.210 M226.630 49.099 C 227.492 49.663,227.517 49.927,227.465 57.802 C 227.412 65.778,227.425 65.677,226.406 66.141 C 225.066 66.752,223.637 65.961,223.422 64.490 C 223.120 62.425,223.405 50.040,223.766 49.554 C 224.400 48.699,225.704 48.492,226.630 49.099 " stroke="none" fill="#acacac" fill-rule="evenodd"></path><path id="path1" d="M196.237 0.236 C 195.387 0.606,195.250 1.201,195.250 4.507 C 195.250 8.104,195.532 8.719,197.285 8.945 C 198.915 9.155,200.000 8.167,200.000 6.475 L 200.000 5.500 199.083 5.500 L 198.167 5.500 198.167 6.238 C 198.167 7.135,197.811 7.589,197.318 7.325 C 196.841 7.070,196.901 1.897,197.385 1.601 C 197.785 1.356,198.167 1.851,198.167 2.615 L 198.167 3.167 199.103 3.167 L 200.040 3.167 199.970 2.197 C 199.831 0.273,198.164 -0.602,196.237 0.236 M248.667 0.213 C 247.084 1.004,247.417 3.230,249.403 5.129 C 250.680 6.350,250.867 6.768,250.331 7.202 C 249.886 7.563,249.445 7.303,249.262 6.571 C 249.060 5.769,247.422 6.088,247.593 6.897 C 248.089 9.245,251.109 9.803,252.032 7.717 C 252.652 6.314,252.174 4.989,250.584 3.708 C 249.436 2.784,249.111 2.151,249.553 1.709 C 249.907 1.355,250.388 1.591,250.472 2.160 C 250.520 2.483,250.599 2.522,251.035 2.435 C 251.314 2.379,251.682 2.333,251.854 2.333 C 252.519 2.333,251.987 0.533,251.219 0.183 C 250.680 -0.063,249.183 -0.045,248.667 0.213 M270.062 0.115 C 268.936 0.336,268.232 5.737,269.068 7.738 C 269.730 9.324,272.647 9.348,273.394 7.774 C 273.868 6.776,273.789 1.565,273.290 0.823 C 272.798 0.094,271.557 -0.178,270.062 0.115 M310.515 0.146 C 309.413 0.454,308.747 5.964,309.595 7.752 C 310.308 9.254,313.152 9.312,313.914 7.839 C 314.371 6.955,314.275 1.543,313.790 0.823 C 313.287 0.078,311.833 -0.223,310.515 0.146 M176.333 0.917 L 176.333 1.667 177.083 1.667 L 177.833 1.667 177.833 5.250 L 177.833 8.833 178.667 8.833 L 179.500 8.833 179.500 5.250 L 179.500 1.667 180.250 1.667 L 181.000 1.667 181.000 0.917 L 181.000 0.167 178.667 0.167 L 176.333 0.167 176.333 0.917 M181.500 4.500 L 181.500 8.833 182.417 8.833 L 183.333 8.833 183.333 6.917 L 183.333 5.000 183.917 5.000 L 184.500 5.000 184.500 6.917 L 184.500 8.833 185.333 8.833 L 186.167 8.833 186.167 4.500 L 186.167 0.167 185.333 0.167 L 184.500 0.167 184.500 1.833 L 184.500 3.500 183.917 3.500 L 183.333 3.500 183.333 1.833 L 183.333 0.167 182.417 0.167 L 181.500 0.167 181.500 4.500 M187.333 4.500 L 187.333 8.833 189.583 8.833 L 191.833 8.833 191.833 8.083 L 191.833 7.333 190.417 7.333 L 189.000 7.333 189.000 6.167 L 189.000 5.000 190.000 5.000 L 191.000 5.000 191.000 4.250 L 191.000 3.500 190.000 3.500 L 189.000 3.500 189.000 2.583 L 189.000 1.667 190.333 1.667 L 191.667 1.667 191.667 0.917 L 191.667 0.167 189.500 0.167 L 187.333 0.167 187.333 4.500 M201.000 4.500 L 201.000 8.833 202.000 8.833 L 203.000 8.833 203.000 4.500 L 203.000 0.167 202.000 0.167 L 201.000 0.167 201.000 4.500 M203.667 0.917 C 203.667 1.663,203.670 1.667,204.250 1.667 L 204.833 1.667 204.833 5.250 L 204.833 8.833 205.833 8.833 L 206.833 8.833 206.833 5.250 L 206.833 1.667 207.407 1.667 C 207.943 1.667,207.983 1.629,208.032 1.071 C 208.166 -0.481,209.841 5.057,209.837 7.042 L 209.833 8.833 210.667 8.833 L 211.500 8.833 211.500 7.119 C 211.500 5.447,211.523 5.344,212.417 2.969 C 212.921 1.629,213.333 0.450,213.333 0.350 C 213.333 0.015,211.535 0.119,211.446 0.458 C 211.404 0.619,211.275 1.125,211.160 1.583 C 210.852 2.809,210.770 2.792,210.366 1.417 L 209.998 0.167 206.832 0.167 L 203.667 0.167 203.667 0.917 M216.500 3.672 C 216.500 8.311,216.771 8.896,218.917 8.896 C 221.063 8.896,221.333 8.311,221.333 3.672 L 221.333 0.167 220.417 0.167 L 219.500 0.167 219.500 3.574 C 219.500 6.918,219.493 6.986,219.125 7.244 C 218.427 7.733,218.333 7.297,218.333 3.551 L 218.333 0.167 217.417 0.167 L 216.500 0.167 216.500 3.672 M222.500 4.500 L 222.500 8.833 223.250 8.833 L 224.000 8.833 224.007 6.625 L 224.014 4.417 224.818 6.583 L 225.622 8.750 226.394 8.801 L 227.167 8.852 227.167 4.509 L 227.167 0.167 226.417 0.167 L 225.667 0.167 225.659 2.208 L 225.650 4.250 225.160 2.917 C 224.032 -0.153,224.245 0.167,223.320 0.167 L 222.500 0.167 222.500 4.500 M228.500 4.500 L 228.500 8.833 229.333 8.833 L 230.167 8.833 230.167 4.500 L 230.167 0.167 229.333 0.167 L 228.500 0.167 228.500 4.500 M231.007 0.458 C 231.013 0.745,231.169 1.495,232.086 5.667 C 232.338 6.813,232.594 7.975,232.653 8.250 C 232.751 8.698,234.500 9.189,234.500 8.768 C 234.500 8.723,234.912 6.802,235.417 4.500 C 235.921 2.198,236.333 0.281,236.333 0.240 C 236.333 0.200,235.922 0.167,235.420 0.167 C 234.363 0.167,234.513 -0.121,233.934 3.000 C 233.555 5.044,233.546 5.068,233.438 4.250 C 233.378 3.792,233.204 2.685,233.053 1.792 L 232.778 0.167 231.889 0.167 C 231.151 0.167,231.001 0.216,231.007 0.458 M236.833 4.500 L 236.833 8.833 239.000 8.833 L 241.167 8.833 241.167 8.083 L 241.167 7.333 239.833 7.333 L 238.500 7.333 238.500 6.167 L 238.500 5.000 239.500 5.000 L 240.500 5.000 240.500 4.250 L 240.500 3.500 239.500 3.500 L 238.500 3.500 238.500 2.583 L 238.500 1.667 239.750 1.667 L 241.000 1.667 241.000 0.917 L 241.000 0.167 238.917 0.167 L 236.833 0.167 236.833 4.500 M242.000 4.500 L 242.000 8.833 242.917 8.833 L 243.833 8.833 243.833 7.083 C 243.833 5.664,243.879 5.333,244.075 5.333 C 244.299 5.333,244.663 6.251,244.666 6.819 C 244.666 6.948,244.793 7.454,244.947 7.944 L 245.228 8.833 246.197 8.833 C 246.730 8.833,247.165 8.815,247.164 8.792 C 247.162 8.769,246.873 7.888,246.521 6.833 C 245.984 5.223,245.920 4.894,246.123 4.775 C 246.728 4.419,247.064 2.295,246.677 1.277 C 246.312 0.317,245.933 0.167,243.885 0.167 L 242.000 0.167 242.000 4.500 M253.333 4.500 L 253.333 8.833 254.250 8.833 L 255.167 8.833 255.167 4.500 L 255.167 0.167 254.250 0.167 L 253.333 0.167 253.333 4.500 M255.833 0.917 L 255.833 1.667 256.500 1.667 L 257.167 1.667 257.167 5.250 L 257.167 8.833 258.167 8.833 L 259.167 8.833 259.167 5.250 L 259.167 1.667 259.750 1.667 C 260.311 1.667,260.334 1.643,260.344 1.042 L 260.355 0.417 260.704 1.333 C 260.896 1.837,261.304 2.905,261.610 3.705 C 262.119 5.036,262.167 5.315,262.167 6.996 L 262.167 8.833 263.000 8.833 L 263.833 8.833 263.833 7.119 C 263.833 5.450,263.857 5.341,264.750 2.954 C 265.874 -0.051,265.876 0.139,264.718 0.200 L 263.768 0.250 263.470 1.250 C 263.306 1.800,263.165 2.438,263.158 2.667 C 263.148 2.959,263.081 2.859,262.933 2.333 C 262.817 1.921,262.623 1.265,262.501 0.875 L 262.281 0.167 259.057 0.167 L 255.833 0.167 255.833 0.917 M274.667 4.500 L 274.667 8.833 275.583 8.833 L 276.500 8.833 276.500 6.917 L 276.500 5.000 277.417 5.000 L 278.333 5.000 278.333 4.250 L 278.333 3.500 277.417 3.500 L 276.500 3.500 276.500 2.583 L 276.500 1.667 277.750 1.667 L 279.000 1.667 279.000 0.917 L 279.000 0.167 276.833 0.167 L 274.667 0.167 274.667 4.500 M282.500 4.500 L 282.500 8.833 283.328 8.833 L 284.157 8.833 284.203 6.625 L 284.250 4.417 284.854 6.167 C 285.186 7.129,285.506 8.123,285.565 8.375 C 285.665 8.799,285.735 8.833,286.503 8.833 L 287.333 8.833 287.333 4.500 L 287.333 0.167 286.500 0.167 L 285.667 0.167 285.662 2.125 C 285.656 4.137,285.519 4.324,285.175 2.788 C 285.081 2.366,284.847 1.604,284.656 1.094 L 284.309 0.167 283.405 0.167 L 282.500 0.167 282.500 4.500 M288.500 4.500 L 288.500 8.833 290.583 8.833 L 292.667 8.833 292.667 8.083 L 292.667 7.333 291.417 7.333 L 290.167 7.333 290.167 6.167 L 290.167 5.000 291.167 5.000 L 292.167 5.000 292.167 4.250 L 292.167 3.500 291.167 3.500 L 290.167 3.500 290.167 2.583 L 290.167 1.667 291.417 1.667 L 292.667 1.667 292.667 0.917 L 292.667 0.167 290.583 0.167 L 288.500 0.167 288.500 4.500 M292.895 0.458 C 292.941 0.619,293.334 2.569,293.767 4.792 L 294.555 8.833 295.341 8.833 C 296.197 8.833,296.327 8.669,296.331 7.583 C 296.332 7.308,296.459 6.408,296.612 5.583 L 296.892 4.083 297.196 5.583 C 297.363 6.408,297.580 7.477,297.678 7.958 L 297.857 8.833 298.655 8.833 L 299.454 8.833 299.734 7.042 C 299.887 6.056,300.198 4.160,300.423 2.828 C 300.649 1.495,300.833 0.352,300.833 0.286 C 300.833 0.220,300.467 0.167,300.019 0.167 L 299.205 0.167 299.009 1.542 C 298.661 3.987,298.624 4.179,298.519 4.076 C 298.463 4.020,298.267 3.136,298.083 2.112 L 297.750 0.250 296.985 0.200 L 296.220 0.151 295.847 2.282 C 295.642 3.455,295.454 4.435,295.429 4.460 C 295.404 4.485,295.253 3.698,295.095 2.711 C 294.650 -0.058,294.771 0.167,293.721 0.167 C 292.933 0.167,292.822 0.206,292.895 0.458 M303.667 0.228 C 303.667 0.551,304.303 2.663,304.768 3.881 C 305.280 5.221,305.333 5.527,305.333 7.098 L 305.333 8.833 306.250 8.833 L 307.167 8.833 307.174 7.042 C 307.183 4.901,307.270 4.462,308.153 2.092 C 308.527 1.089,308.833 0.245,308.833 0.217 C 308.833 0.189,308.428 0.167,307.933 0.167 L 307.032 0.167 306.683 1.318 C 306.491 1.951,306.327 2.569,306.320 2.693 C 306.313 2.816,306.101 2.317,305.849 1.583 L 305.390 0.250 304.528 0.200 C 304.054 0.172,303.667 0.185,303.667 0.228 M315.167 4.500 L 315.167 8.833 316.083 8.833 L 317.000 8.833 317.000 7.083 C 317.000 5.674,317.047 5.333,317.239 5.333 C 317.398 5.333,317.660 5.924,318.016 7.083 L 318.553 8.833 319.443 8.833 C 320.504 8.833,320.484 9.018,319.668 6.708 C 319.304 5.677,319.081 4.833,319.172 4.833 C 319.569 4.833,319.999 3.742,319.999 2.733 C 320.001 0.513,319.597 0.167,317.006 0.167 L 315.167 0.167 315.167 4.500 M321.000 4.500 L 321.000 8.833 321.917 8.833 L 322.833 8.833 322.833 7.177 C 322.833 4.983,323.040 4.959,323.696 7.078 L 324.240 8.833 325.120 8.833 C 326.235 8.833,326.234 8.873,325.171 5.796 L 324.343 3.398 324.986 2.157 C 326.024 0.157,326.024 0.167,324.930 0.167 L 324.005 0.167 323.427 1.292 L 322.850 2.417 322.842 1.292 L 322.833 0.167 321.917 0.167 L 321.000 0.167 321.000 4.500 M244.741 1.870 C 245.270 2.626,244.987 3.695,244.208 3.880 C 243.845 3.966,243.833 3.930,243.833 2.734 C 243.833 1.380,244.172 1.058,244.741 1.870 M271.661 1.822 C 272.203 2.835,271.797 7.500,271.167 7.500 C 270.519 7.500,270.100 2.300,270.700 1.700 C 271.000 1.400,271.466 1.459,271.661 1.822 M312.133 1.700 C 312.463 2.029,312.408 6.901,312.071 7.238 C 311.757 7.552,311.630 7.564,311.367 7.300 C 311.151 7.084,311.069 1.820,311.278 1.611 C 311.455 1.434,311.915 1.482,312.133 1.700 M318.029 1.776 C 318.691 2.375,318.337 3.696,317.458 3.900 L 317.000 4.006 317.000 2.753 C 317.000 1.389,317.293 1.110,318.029 1.776 M5.080 16.831 C 3.177 17.111,1.311 18.463,0.531 20.128 L 0.083 21.083 0.083 29.250 C 0.083 39.635,0.116 39.767,3.030 41.337 L 4.417 42.083 6.500 42.083 C 10.993 42.083,12.809 40.152,12.963 35.208 L 13.037 32.833 10.769 32.833 L 8.500 32.833 8.493 34.375 C 8.479 37.301,8.047 38.173,6.616 38.161 C 4.518 38.143,4.502 38.077,4.501 29.483 L 4.500 22.216 4.881 21.650 C 6.307 19.530,8.282 20.834,8.457 24.010 L 8.548 25.667 10.774 25.667 L 13.000 25.667 12.998 24.125 C 12.989 18.791,10.065 16.098,5.080 16.831 M61.455 16.830 C 59.534 17.177,57.670 18.671,56.981 20.417 C 56.530 21.560,56.269 35.162,56.657 37.287 C 57.483 41.802,62.537 43.766,65.915 40.884 C 66.640 40.265,66.584 40.239,66.993 41.375 C 67.154 41.820,67.196 41.833,68.413 41.833 L 69.667 41.833 69.667 35.500 L 69.667 29.167 66.083 29.167 L 62.500 29.167 62.500 31.000 L 62.500 32.833 63.767 32.833 L 65.034 32.833 64.975 34.914 C 64.917 36.989,64.916 36.995,64.395 37.515 C 63.562 38.349,62.524 38.390,61.755 37.621 L 61.167 37.033 61.167 29.639 C 61.167 21.300,61.164 21.322,62.384 20.856 C 63.792 20.319,64.845 21.577,64.969 23.946 L 65.042 25.333 67.188 25.333 L 69.333 25.333 69.333 23.684 C 69.333 18.846,66.059 15.997,61.455 16.830 M16.333 29.417 L 16.333 41.833 18.583 41.833 L 20.833 41.833 20.833 36.833 L 20.833 31.833 21.743 31.833 L 22.652 31.833 23.168 33.542 C 23.451 34.481,23.859 35.813,24.075 36.500 C 24.291 37.188,24.749 38.669,25.094 39.792 L 25.721 41.833 27.963 41.833 C 30.205 41.833,30.206 41.833,30.113 41.458 C 29.795 40.176,29.471 39.123,28.168 35.141 L 26.714 30.698 27.126 30.477 C 30.121 28.874,30.663 21.343,27.959 18.899 C 26.289 17.391,24.544 17.013,19.208 17.005 L 16.333 17.000 16.333 29.417 M35.759 17.204 C 35.722 17.321,35.533 18.279,35.340 19.333 C 35.147 20.387,34.916 21.587,34.828 22.000 C 34.433 23.843,33.500 29.022,33.500 29.369 C 33.500 29.723,31.507 40.340,31.246 41.375 L 31.131 41.833 33.378 41.833 L 35.625 41.833 35.713 41.375 C 35.762 41.123,35.936 39.923,36.100 38.708 L 36.398 36.500 38.593 36.500 L 40.788 36.500 40.894 37.273 C 40.952 37.699,41.000 38.333,41.000 38.683 C 41.000 39.033,41.084 39.885,41.187 40.577 L 41.374 41.833 43.622 41.833 L 45.869 41.833 45.754 41.375 C 45.579 40.679,45.042 37.786,44.741 35.917 C 44.594 35.000,43.747 30.387,42.859 25.667 L 41.245 17.083 38.536 17.038 C 36.454 17.002,35.810 17.041,35.759 17.204 M48.500 29.417 L 48.500 41.833 50.750 41.833 L 53.000 41.833 53.000 29.417 L 53.000 17.000 50.750 17.000 L 48.500 17.000 48.500 29.417 M77.833 29.417 L 77.833 41.833 79.833 41.833 L 81.833 41.833 81.848 34.542 C 81.856 30.531,81.923 27.438,81.997 27.667 C 82.072 27.896,82.637 29.433,83.252 31.083 C 83.868 32.733,84.764 35.287,85.242 36.759 C 85.720 38.230,86.323 39.974,86.582 40.634 L 87.053 41.833 89.026 41.833 L 91.000 41.833 91.000 29.417 L 91.000 17.000 88.917 17.000 L 86.833 17.000 86.820 23.542 C 86.804 31.062,86.956 30.833,85.240 25.917 C 84.664 24.267,83.808 21.904,83.336 20.667 C 82.865 19.429,82.365 18.098,82.224 17.708 L 81.969 17.000 79.901 17.000 L 77.833 17.000 77.833 29.417 M94.333 29.417 L 94.333 41.833 100.417 41.833 L 106.500 41.833 106.500 39.833 L 106.500 37.833 102.667 37.833 L 98.833 37.833 98.833 34.417 L 98.833 31.000 101.500 31.000 L 104.167 31.000 104.167 29.000 L 104.167 27.000 101.500 27.000 L 98.833 27.000 98.833 24.000 L 98.833 21.000 102.417 21.000 L 106.000 21.000 106.000 19.000 L 106.000 17.000 100.167 17.000 L 94.333 17.000 94.333 29.417 M107.258 17.625 C 107.316 17.969,107.432 18.512,107.514 18.833 C 107.597 19.154,107.665 19.649,107.666 19.932 C 107.666 20.216,108.491 24.604,109.499 29.682 C 110.506 34.761,111.331 39.096,111.332 39.314 C 111.333 39.533,111.421 40.189,111.529 40.772 L 111.724 41.833 113.695 41.833 C 115.159 41.833,115.668 41.780,115.670 41.625 C 115.672 41.510,116.298 38.005,117.061 33.835 C 118.528 25.813,118.480 25.952,118.833 28.744 C 118.984 29.940,120.441 37.589,121.096 40.625 L 121.356 41.833 123.250 41.833 C 124.912 41.833,125.154 41.798,125.226 41.542 C 125.271 41.381,125.459 40.313,125.643 39.167 C 126.546 33.569,126.696 32.661,126.911 31.500 C 128.222 24.414,129.500 17.354,129.500 17.196 C 129.500 17.056,128.892 17.000,127.371 17.000 L 125.242 17.000 125.053 18.208 C 124.949 18.873,124.427 22.221,123.894 25.648 L 122.924 31.880 122.634 30.482 C 122.475 29.713,122.263 28.408,122.162 27.583 C 122.062 26.758,121.590 24.058,121.112 21.583 L 120.244 17.083 118.385 17.036 C 116.721 16.994,116.517 17.021,116.440 17.286 C 116.358 17.572,115.616 21.843,114.467 28.634 C 114.168 30.404,113.905 31.792,113.882 31.718 C 113.833 31.557,111.333 17.204,111.333 17.084 C 111.333 17.038,110.392 17.000,109.242 17.000 L 107.152 17.000 107.258 17.625 M132.000 29.413 L 132.000 41.833 133.999 41.833 L 135.997 41.833 136.040 33.208 L 136.083 24.583 136.718 27.917 C 137.591 32.501,139.364 41.371,139.458 41.625 C 139.510 41.763,139.912 41.833,140.653 41.833 L 141.771 41.833 143.124 35.125 C 143.868 31.435,144.650 27.479,144.863 26.333 L 145.250 24.250 145.293 33.042 L 145.336 41.833 147.335 41.833 L 149.333 41.833 149.333 29.417 L 149.333 17.000 146.447 17.000 L 143.561 17.000 143.284 18.208 C 142.362 22.231,141.036 28.650,140.908 29.712 C 140.820 30.442,140.505 30.686,140.496 30.032 C 140.494 29.877,139.869 26.900,139.108 23.417 L 137.725 17.083 134.862 17.038 L 132.000 16.992 132.000 29.413 M156.107 17.382 C 156.054 17.592,155.963 18.211,155.904 18.757 C 155.846 19.303,155.015 23.837,154.059 28.833 C 153.102 33.829,152.248 38.479,152.161 39.167 C 152.073 39.854,151.954 40.735,151.896 41.125 L 151.789 41.833 153.883 41.833 C 156.318 41.833,156.036 42.112,156.410 39.333 C 156.552 38.279,156.711 37.210,156.764 36.958 L 156.860 36.500 158.992 36.500 L 161.125 36.500 161.213 36.958 C 161.262 37.210,161.436 38.410,161.600 39.625 L 161.898 41.833 164.116 41.833 C 165.335 41.833,166.333 41.777,166.334 41.708 C 166.334 41.640,165.591 37.646,164.683 32.833 C 163.774 28.021,162.948 23.521,162.846 22.833 C 162.745 22.146,162.460 20.552,162.214 19.292 L 161.768 17.000 158.985 17.000 C 156.224 17.000,156.202 17.003,156.107 17.382 M168.833 29.417 L 168.833 41.833 171.083 41.833 L 173.333 41.833 173.333 36.833 L 173.333 31.833 174.225 31.833 L 175.118 31.833 175.902 34.375 C 176.333 35.773,176.953 37.779,177.280 38.833 C 177.607 39.887,177.910 40.994,177.955 41.292 L 178.036 41.833 180.352 41.833 C 181.625 41.833,182.667 41.780,182.667 41.716 C 182.667 41.575,181.925 39.194,180.370 34.336 L 179.223 30.756 179.826 30.320 C 180.633 29.735,181.312 28.907,181.430 28.362 C 181.484 28.117,181.604 27.692,181.697 27.417 C 182.035 26.418,182.067 23.150,181.753 21.732 C 180.905 17.907,179.012 17.016,171.708 17.005 L 168.833 17.000 168.833 29.417 M185.500 29.417 L 185.500 41.833 187.750 41.833 L 190.000 41.833 190.000 37.510 L 190.000 33.187 190.658 31.975 C 191.063 31.229,191.349 30.856,191.402 31.006 C 191.719 31.905,192.821 35.564,192.982 36.250 C 193.089 36.708,193.515 38.152,193.927 39.458 L 194.676 41.833 197.005 41.833 C 198.286 41.833,199.333 41.793,199.333 41.743 C 199.333 41.693,198.658 39.709,197.833 37.333 C 197.008 34.958,196.333 32.912,196.333 32.787 C 196.333 32.661,195.853 31.173,195.265 29.479 L 194.197 26.399 196.428 21.908 C 197.655 19.438,198.660 17.323,198.663 17.208 C 198.666 17.052,198.107 17.000,196.415 17.000 L 194.164 17.000 193.481 18.458 C 193.106 19.260,192.187 21.128,191.441 22.609 L 190.083 25.301 190.039 21.151 L 189.994 17.000 187.747 17.000 L 185.500 17.000 185.500 29.417 M23.850 21.271 C 24.818 21.837,25.083 22.513,25.083 24.417 C 25.083 27.078,24.305 28.000,22.059 28.000 L 20.833 28.000 20.833 24.395 L 20.833 20.789 22.065 20.869 C 22.863 20.920,23.491 21.061,23.850 21.271 M176.276 21.219 C 177.238 21.719,177.576 22.524,177.580 24.331 C 177.586 27.020,176.901 27.873,174.655 27.975 L 173.333 28.035 173.333 24.412 L 173.333 20.789 174.542 20.868 C 175.206 20.911,175.987 21.069,176.276 21.219 M159.964 29.333 L 160.426 32.417 159.025 32.465 C 158.255 32.492,157.600 32.489,157.569 32.458 C 157.539 32.427,157.848 30.395,158.257 27.941 C 158.666 25.487,159.010 23.391,159.022 23.282 C 159.034 23.173,159.147 23.796,159.273 24.667 C 159.398 25.537,159.709 27.637,159.964 29.333 M39.299 27.875 C 39.690 30.281,40.008 32.306,40.005 32.375 C 40.002 32.444,39.315 32.500,38.478 32.500 L 36.956 32.500 37.055 31.875 C 37.810 27.110,38.434 23.501,38.502 23.501 C 38.549 23.500,38.908 25.469,39.299 27.875 M268.726 44.834 C 266.727 45.126,264.975 46.415,264.070 48.259 L 263.583 49.250 263.583 57.500 L 263.583 65.750 264.063 66.789 C 265.170 69.186,266.701 70.053,269.972 70.137 L 272.362 70.199 273.413 69.681 C 274.687 69.054,275.531 68.156,276.227 66.687 L 276.750 65.583 276.801 58.250 C 276.866 48.991,276.794 48.513,275.047 46.645 C 273.595 45.093,271.350 44.450,268.726 44.834 M372.250 44.837 C 368.802 45.316,366.805 47.886,367.042 51.538 C 367.226 54.358,368.817 56.752,372.250 59.371 C 375.297 61.695,376.332 64.207,374.853 65.686 C 373.362 67.177,371.327 65.949,371.037 63.384 L 370.953 62.631 370.351 62.737 C 370.021 62.795,369.091 62.890,368.286 62.947 C 366.553 63.069,366.671 62.944,366.825 64.500 C 367.050 66.780,368.488 68.889,370.422 69.774 C 371.654 70.338,375.218 70.302,376.518 69.713 C 380.091 68.095,381.055 62.646,378.376 59.209 C 377.632 58.254,375.434 56.056,374.891 55.724 C 373.179 54.676,371.235 51.884,371.397 50.706 C 371.760 48.059,374.799 48.164,375.251 50.840 C 375.382 51.614,375.341 51.607,377.958 51.304 L 379.667 51.107 379.667 50.584 C 379.667 46.925,376.253 44.280,372.250 44.837 M255.833 55.075 C 255.833 66.831,255.932 66.333,253.592 66.333 L 252.667 66.333 252.667 68.266 L 252.667 70.199 254.958 70.137 C 257.562 70.066,258.222 69.844,259.146 68.723 C 260.273 67.355,260.241 67.723,260.295 55.875 L 260.345 45.167 258.089 45.167 L 255.833 45.167 255.833 55.075 M280.035 55.462 L 280.083 65.758 280.631 66.870 C 281.879 69.405,283.255 70.167,286.583 70.167 C 290.158 70.167,291.826 69.144,292.796 66.358 C 293.030 65.685,293.073 64.244,293.124 55.375 L 293.183 45.167 290.925 45.167 L 288.667 45.167 288.667 54.933 C 288.667 66.385,288.676 66.333,286.607 66.333 C 284.555 66.333,284.592 66.535,284.535 54.958 L 284.487 45.167 282.237 45.167 L 279.986 45.167 280.035 55.462 M296.500 57.571 L 296.500 70.000 298.750 70.000 L 301.000 70.000 301.000 64.917 L 301.000 59.833 301.968 59.833 L 302.937 59.833 303.460 61.625 C 303.747 62.610,304.027 63.642,304.082 63.917 C 304.137 64.192,304.436 65.242,304.747 66.250 C 305.057 67.258,305.434 68.515,305.584 69.042 L 305.857 70.000 308.178 70.000 C 309.964 70.000,310.500 69.950,310.500 69.785 C 310.500 69.666,309.897 67.810,309.161 65.660 C 308.425 63.509,307.649 61.102,307.438 60.310 L 307.054 58.870 307.847 58.187 C 310.182 56.176,310.602 50.193,308.594 47.563 C 306.999 45.474,306.341 45.273,300.875 45.200 L 296.500 45.142 296.500 57.571 M313.333 57.583 L 313.333 70.000 315.415 70.000 L 317.496 70.000 317.540 62.792 L 317.583 55.583 318.696 58.917 C 319.308 60.750,320.157 63.188,320.583 64.333 C 321.009 65.479,321.634 67.221,321.971 68.204 L 322.583 69.991 324.542 69.996 L 326.500 70.000 326.500 57.583 L 326.500 45.167 324.502 45.167 L 322.504 45.167 322.460 51.958 C 322.435 55.846,322.359 58.536,322.281 58.250 C 322.149 57.766,320.809 54.084,319.459 50.500 C 319.097 49.538,318.542 47.944,318.227 46.958 L 317.655 45.167 315.494 45.167 L 313.333 45.167 313.333 57.583 M333.190 47.204 C 332.977 48.330,332.664 49.962,332.494 50.833 C 332.324 51.704,331.913 53.842,331.580 55.583 C 331.248 57.325,330.800 59.650,330.586 60.750 C 330.371 61.850,330.108 63.350,330.002 64.083 C 329.831 65.262,329.315 68.265,329.064 69.542 L 328.974 70.000 331.153 70.000 C 332.352 70.000,333.332 69.944,333.331 69.875 C 333.330 69.806,333.494 68.567,333.696 67.120 L 334.063 64.491 336.236 64.537 L 338.410 64.583 338.693 66.583 C 338.849 67.683,339.024 68.902,339.082 69.292 L 339.187 70.000 341.430 70.000 C 343.670 70.000,343.673 70.000,343.588 69.625 C 343.382 68.721,341.606 59.324,341.153 56.750 C 340.880 55.192,340.299 51.967,339.862 49.583 L 339.069 45.250 336.323 45.204 L 333.578 45.159 333.190 47.204 M345.833 57.583 L 345.833 70.000 351.417 70.000 L 357.000 70.000 357.000 68.000 L 357.000 66.000 353.750 66.000 L 350.500 66.000 350.500 55.583 L 350.500 45.167 348.167 45.167 L 345.833 45.167 345.833 57.583 M359.333 57.583 L 359.333 70.000 361.500 70.000 L 363.667 70.000 363.667 57.583 L 363.667 45.167 361.500 45.167 L 359.333 45.167 359.333 57.583 M382.500 57.583 L 382.500 70.000 384.500 70.000 L 386.500 70.000 386.515 61.042 L 386.529 52.083 387.587 57.083 C 388.170 59.833,388.768 62.758,388.917 63.583 C 389.066 64.408,389.393 66.171,389.644 67.500 L 390.100 69.917 391.243 69.967 C 392.505 70.022,392.660 69.924,392.664 69.069 C 392.666 68.786,393.410 64.998,394.318 60.652 C 395.227 56.306,396.004 52.563,396.046 52.333 C 396.087 52.104,396.131 55.985,396.144 60.958 L 396.167 70.000 398.083 70.000 L 400.000 70.000 400.000 57.583 L 400.000 45.167 397.090 45.167 L 394.180 45.167 394.020 45.792 C 393.829 46.542,392.926 51.013,392.681 52.417 C 392.364 54.233,391.418 58.500,391.332 58.500 C 391.230 58.500,388.888 47.592,388.742 46.437 C 388.571 45.078,388.798 45.167,385.482 45.167 L 382.500 45.167 382.500 57.583 M270.918 48.907 C 272.175 49.432,272.165 49.362,272.166 57.464 C 272.167 66.260,272.094 66.538,269.853 66.285 C 268.029 66.079,267.958 65.714,268.030 56.833 C 268.094 48.933,268.075 49.003,270.214 48.686 C 270.285 48.675,270.602 48.775,270.918 48.907 M304.073 49.258 C 304.910 49.807,305.241 50.728,305.238 52.500 C 305.234 55.242,304.597 55.998,302.292 55.999 L 301.000 56.000 301.000 52.393 L 301.000 48.786 302.313 48.876 C 303.155 48.933,303.786 49.071,304.073 49.258 M336.881 54.583 C 337.119 56.142,337.362 57.904,337.420 58.500 C 337.478 59.096,337.567 59.790,337.617 60.042 L 337.708 60.500 336.271 60.500 C 335.480 60.500,334.831 60.444,334.829 60.375 C 334.811 59.910,336.263 51.533,336.345 51.629 C 336.401 51.696,336.643 53.025,336.881 54.583 " stroke="none" fill="#040404" fill-rule="evenodd"></path><path id="path2" d="" stroke="none" fill="#84b058" fill-rule="evenodd"></path><path id="path3" d="M225.904 24.417 C 225.904 26.433,225.929 27.235,225.958 26.199 C 225.987 25.163,225.987 23.513,225.958 22.532 C 225.928 21.552,225.904 22.400,225.904 24.417 M230.050 24.500 C 230.050 25.004,230.081 25.210,230.119 24.958 C 230.158 24.706,230.158 24.294,230.119 24.042 C 230.081 23.790,230.050 23.996,230.050 24.500 M225.907 36.667 C 225.907 39.371,225.930 40.477,225.958 39.125 C 225.986 37.773,225.986 35.560,225.958 34.208 C 225.930 32.856,225.907 33.962,225.907 36.667 M126.294 44.785 C 126.501 44.824,126.801 44.823,126.960 44.781 C 127.120 44.739,126.950 44.707,126.583 44.709 C 126.217 44.711,126.086 44.745,126.294 44.785 M141.960 44.785 C 142.168 44.824,142.468 44.823,142.627 44.781 C 142.786 44.739,142.617 44.707,142.250 44.709 C 141.883 44.711,141.753 44.745,141.960 44.785 M191.127 44.785 C 191.334 44.824,191.634 44.823,191.794 44.781 C 191.953 44.739,191.783 44.707,191.417 44.709 C 191.050 44.711,190.920 44.745,191.127 44.785 " stroke="none" fill="#2c5c58" fill-rule="evenodd"></path><path id="path4" d="" stroke="none" fill="#2c045c" fill-rule="evenodd"></path></g></svg>