<?xml version="1.0" encoding="utf-8"?>
<!-- Generator: Adobe Illustrator 23.0.6, SVG Export Plug-In . SVG Version: 6.00 Build 0)  -->
<svg version="1.1" id="Layer_1" xmlns="http://www.w3.org/2000/svg" xmlns:xlink="http://www.w3.org/1999/xlink" x="0px" y="0px"
	 viewBox="0 0 166.5 166.7" style="enable-background:new 0 0 166.5 166.7;" xml:space="preserve">
<style type="text/css">
	.st0{clip-path:url(#SVGID_2_);fill:url(#SVGID_3_);}
	.st1{fill:#20667F;}
</style>
<g>
	<g>
		<defs>
			<path id="SVGID_1_" d="M9.5,83.2c0-40.1,32.6-72.7,72.7-72.7s72.7,32.6,72.7,72.7s-32.6,72.7-72.7,72.7S9.5,123.3,9.5,83.2
				 M1,83.2c0,44.8,36.4,81.2,81.2,81.2s81.2-36.4,81.2-81.2S127,2,82.2,2S1,38.4,1,83.2"/>
		</defs>
		<clipPath id="SVGID_2_">
			<use xlink:href="#SVGID_1_"  style="overflow:visible;"/>
		</clipPath>
		
			<linearGradient id="SVGID_3_" gradientUnits="userSpaceOnUse" x1="-965.7277" y1="421.0271" x2="-964.7277" y2="421.0271" gradientTransform="matrix(124.129 -124.129 124.129 124.129 67632.4922 -171990.4375)">
			<stop  offset="0" style="stop-color:#BC9F40"/>
			<stop  offset="1" style="stop-color:#20667F"/>
		</linearGradient>
		<polygon class="st0" points="-80.2,83.2 82.2,-79.2 244.6,83.2 82.2,245.6 		"/>
	</g>
</g>
<g>
	<path class="st1" d="M71.1,72.8c3-2.8,6.4-4.1,10.2-4.1c3.8,0,7.2,1.4,10.1,4.1s4.4,6.2,4.4,10.5c0,2.9-0.8,5.6-2.3,7.8
		c-1.5,2.3-3.4,4-5.5,5c-2.2,1.1-4.4,1.6-6.8,1.6c-2.3,0-4.6-0.6-6.8-1.7c-2.2-1.1-4-2.8-5.6-5.1s-2.3-4.8-2.3-7.6
		C66.7,79.1,68.2,75.6,71.1,72.8 M77.8,87.1c1.1,0.9,2.3,1.3,3.5,1.3s2.3-0.4,3.5-1.3s1.8-2.2,1.8-3.9c0-1.7-0.5-3-1.6-3.9
		S82.7,78,81.4,78s-2.5,0.4-3.6,1.3s-1.6,2.2-1.6,3.9C76.1,84.9,76.6,86.2,77.8,87.1"/>
	<path class="st1" d="M111.3,83c0,1.5,0.5,2.7,1.5,3.5s2,1.2,3.2,1.2c1.1,0,2.2-0.3,3.1-1c1-0.7,1.8-1,2.4-1c1.1,0,2.4,0.9,3.9,2.8
		c0.8,1,1.2,1.9,1.2,2.8c0,1.3-1,2.6-2.9,3.8c-2,1.4-4.5,2.1-7.4,2.1c-3.3,0-6.5-1.2-9.5-3.6c-1.5-1.1-2.6-2.6-3.6-4.5
		c-0.9-1.9-1.4-4-1.4-6.3s0.5-4.4,1.4-6.2c0.9-1.9,2.1-3.4,3.6-4.5c2.9-2.3,6.1-3.5,9.4-3.5c1.3,0,2.7,0.2,3.9,0.6
		c1.3,0.4,2.2,0.7,2.8,1.1l0.8,0.5c0.6,0.4,1.1,0.8,1.5,1c0.9,0.7,1.4,1.5,1.4,2.4s-0.4,1.9-1.1,3.1c-1.3,1.9-2.5,2.9-3.7,2.9
		c-0.7,0-1.6-0.4-2.9-1.2c-0.6-0.6-1.5-0.9-2.7-0.9s-2.3,0.4-3.3,1.3C111.8,80.3,111.3,81.5,111.3,83"/>
	<path class="st1" d="M51.8,69c0.7-0.2,1.5-0.3,2.6-0.3s2,0.1,2.6,0.3c0.6,0.2,1.1,0.6,1.4,1.1s0.4,1,0.5,1.4s0.1,1,0.1,1.8v21.9
		c0,4.1-1.4,7.5-4.3,9.9c-2.9,2.5-6,3.7-9.5,3.7c-0.8,0-1.4,0-1.8-0.1s-0.8-0.2-1.3-0.5c-0.9-0.5-1.4-1.8-1.4-3.9s0.4-3.4,1.1-3.9
		c0.8-0.5,1.8-0.8,3.1-0.8c1.3,0,2.4-0.4,3.4-1.1s1.5-2,1.5-3.8V72.9c0-1.2,0.2-2.2,0.5-2.7C50.6,69.6,51.1,69.2,51.8,69"/>
	<path class="st1" d="M50.5,63.7c1.1,0.9,2.3,1.3,3.5,1.3s2.3-0.4,3.5-1.3c1.2-0.9,1.8-2.2,1.8-3.9s-0.5-3-1.6-3.9s-2.3-1.3-3.6-1.3
		c-1.3,0-2.5,0.4-3.6,1.3c-1.1,0.9-1.6,2.2-1.6,3.9C48.8,61.5,49.4,62.8,50.5,63.7"/>
</g>
</svg>
